<?xml version="1.0" encoding="UTF-8" standalone="no"?>
<!DOCTYPE svg PUBLIC "-//W3C//DTD SVG 1.1//EN" "http://www.w3.org/Graphics/SVG/1.1/DTD/svg11.dtd">
<svg width="100%" height="100%" viewBox="0 0 1200 451" version="1.1" xmlns="http://www.w3.org/2000/svg" xmlns:xlink="http://www.w3.org/1999/xlink" xml:space="preserve" xmlns:serif="http://www.serif.com/" style="fill-rule:evenodd;clip-rule:evenodd;stroke-linecap:round;stroke-linejoin:round;stroke-miterlimit:1.5;">
    <g transform="matrix(0.988075,-0.153974,0.153974,0.988075,1.3511,-1263.47)">
        <g transform="matrix(48,0,0,48,975.83,1530.78)">
        </g>
        <text x="222.23px" y="1530.79px" style="font-family:'BradleyHandITCTT-Bold', 'Bradley Hand';font-weight:700;font-size:48px;fill:rgb(18,91,132);">Right click a client for more options</text>
    </g>
    <g transform="matrix(2.78324,0,0,2.73903,-604.072,-4176.59)">
        <path d="M217.518,1685.06L220.93,1688.71L223.574,1684.52L220.93,1688.71C220.93,1688.71 209.125,1573.87 240.422,1568.53" style="fill:none;stroke:rgb(18,91,132);stroke-width:0.97px;"/>
    </g>
    <g transform="matrix(2.78324,0,0,2.73903,-234.664,-4176.59)">
        <path d="M217.518,1685.06L220.93,1688.71L223.574,1684.52L220.93,1688.71C220.93,1688.71 209.125,1606.72 240.422,1601.38" style="fill:none;stroke:rgb(18,91,132);stroke-width:0.97px;"/>
    </g>
    <g transform="matrix(0.988075,-0.153974,0.153974,0.988075,-367.568,-1378.55)">
        <text x="222.23px" y="1530.79px" style="font-family:'BradleyHandITCTT-Bold', 'Bradley Hand';font-weight:700;font-size:48px;fill:rgb(18,91,132);">Use your mouse wheel</text>
        <g transform="matrix(48,0,0,48,629.606,1578.78)">
        </g>
        <text x="270.806px" y="1578.79px" style="font-family:'BradleyHandITCTT-Bold', 'Bradley Hand';font-weight:700;font-size:48px;fill:rgb(18,91,132);">to spli<tspan x="398.054px " y="1578.79px ">t</tspan> the screen</text>
    </g>
</svg>
